<svg width="835" height="835" viewBox="0 0 835 835" fill="none" xmlns="http://www.w3.org/2000/svg">
<g opacity="0.07">
<mask id="mask0_183_4321" style="mask-type:alpha" maskUnits="userSpaceOnUse" x="65" y="65" width="705" height="705">
<circle cx="417.5" cy="417.5" r="352.5" fill="#15269C"/>
</mask>
<g mask="url(#mask0_183_4321)">
<rect x="-33.5" y="29.4678" width="125.23" height="125.23" stroke="white"/>
<rect x="91.468" y="29.4678" width="125.23" height="125.23" stroke="white"/>
<rect x="-33.5" y="154.434" width="125.23" height="125.23" stroke="white"/>
<rect x="-33.5" y="279.404" width="125.23" height="125.23" stroke="white"/>
<rect x="91.468" y="154.434" width="125.23" height="125.23" stroke="white"/>
<rect x="91.468" y="279.404" width="125.23" height="125.23" stroke="white"/>
<rect x="216.436" y="29.4678" width="125.23" height="125.23" stroke="white"/>
<rect x="341.404" y="29.4678" width="125.23" height="125.23" stroke="white"/>
<rect x="216.436" y="154.434" width="125.23" height="125.23" stroke="white"/>
<rect x="216.436" y="279.404" width="125.23" height="125.23" stroke="white"/>
<rect x="341.404" y="154.434" width="125.23" height="125.23" stroke="white"/>
<rect x="341.404" y="279.404" width="125.23" height="125.23" stroke="white"/>
<rect x="466.366" y="29.4678" width="125.23" height="125.23" stroke="white"/>
<rect x="591.334" y="29.4678" width="125.23" height="125.23" stroke="white"/>
<rect x="466.366" y="154.433" width="125.23" height="125.23" stroke="white"/>
<rect x="466.366" y="279.404" width="125.23" height="125.23" stroke="white"/>
<rect x="591.334" y="154.434" width="125.23" height="125.23" stroke="white"/>
<rect x="591.334" y="279.404" width="125.23" height="125.23" stroke="white"/>
<rect x="716.308" y="29.4678" width="125.23" height="125.23" stroke="white"/>
<rect x="716.308" y="154.434" width="125.23" height="125.23" stroke="white"/>
<rect x="716.308" y="279.404" width="125.23" height="125.23" stroke="white"/>
<rect x="-33.5" y="404.366" width="125.23" height="125.23" stroke="white"/>
<rect x="-33.5" y="529.334" width="125.23" height="125.23" stroke="white"/>
<rect x="91.468" y="404.366" width="125.23" height="125.23" stroke="white"/>
<rect x="91.468" y="529.334" width="125.23" height="125.23" stroke="white"/>
<rect x="-33.5" y="654.309" width="125.23" height="125.23" stroke="white"/>
<rect x="91.468" y="654.309" width="125.23" height="125.23" stroke="white"/>
<rect x="216.436" y="404.366" width="125.23" height="125.23" stroke="white"/>
<rect x="216.436" y="529.334" width="125.23" height="125.23" stroke="white"/>
<rect x="341.404" y="404.366" width="125.23" height="125.23" stroke="white"/>
<rect x="341.404" y="529.334" width="125.23" height="125.23" stroke="white"/>
<rect x="216.436" y="654.309" width="125.23" height="125.23" stroke="white"/>
<rect x="341.404" y="654.309" width="125.23" height="125.23" stroke="white"/>
<rect x="466.366" y="404.366" width="125.23" height="125.23" stroke="white"/>
<rect x="466.366" y="529.334" width="125.23" height="125.23" stroke="white"/>
<rect x="591.334" y="404.366" width="125.23" height="125.23" stroke="white"/>
<rect x="591.334" y="529.334" width="125.23" height="125.23" stroke="white"/>
<rect x="466.366" y="654.308" width="125.23" height="125.23" stroke="white"/>
<rect x="591.334" y="654.309" width="125.23" height="125.23" stroke="white"/>
<rect x="716.308" y="404.366" width="125.23" height="125.23" stroke="white"/>
<rect x="716.308" y="529.334" width="125.23" height="125.23" stroke="white"/>
<rect x="716.308" y="654.309" width="125.23" height="125.23" stroke="white"/>
</g>
</g>
</svg>
