<svg width="70" height="70" viewBox="0 0 70 70" fill="none" xmlns="http://www.w3.org/2000/svg">
<g clip-path="url(#clip0_183_4254)">
<path d="M56.875 70H13.125C5.87563 70 0 64.1244 0 56.875V13.125C0 5.87563 5.87563 0 13.125 0H56.875C64.1244 0 70 5.87563 70 13.125V56.875C70 64.1244 64.1244 70 56.875 70Z" fill="#FFE6E2"/>
<path d="M41.1535 52.5001C39.165 52.5001 37.4588 51.0848 37.0956 49.1336L35.6125 41.2979C35.4988 40.6701 34.9519 40.2239 34.3088 40.2239C33.6656 40.2239 33.1188 40.6701 33.0094 41.2848L31.5219 49.1379C31.1544 51.0848 29.4481 52.5001 27.4575 52.5001C25.3291 52.5001 23.5572 50.912 23.3406 48.8054L22.7588 43.457C22.5597 41.5451 22.1616 39.677 21.5731 37.8964L20.4444 34.3854C19.4578 31.3557 18.9569 28.1817 18.9569 24.9551C18.9569 21.6126 21.6847 18.8936 25.0403 18.8936C27.3066 18.8936 29.4984 19.447 31.8544 20.5867C33.4316 21.3501 34.9431 21.3873 36.4853 20.6939C37.2181 20.3636 38.0822 20.6917 38.4125 21.4289C38.7428 22.1639 38.4147 23.0257 37.6797 23.3561C35.3391 24.4061 32.9525 24.3579 30.5856 23.2117C28.6366 22.2689 26.8581 21.8095 25.1519 21.8095C23.2969 21.8117 21.875 23.2226 21.875 24.9573C21.875 27.8754 22.3278 30.7454 23.2203 33.4886L24.3469 36.9951C24.9944 38.9639 25.4384 41.0376 25.6572 43.1486L26.2413 48.497C26.3047 49.1204 26.8275 49.582 27.4575 49.582C28.0438 49.582 28.5447 49.1685 28.6497 48.5976L30.1372 40.7532C30.4959 38.7604 32.2503 37.3057 34.3066 37.3057C36.3628 37.3057 38.1172 38.7604 38.4803 40.7664L39.9634 48.5932C40.0706 49.1686 40.5716 49.582 41.1556 49.582C41.7856 49.582 42.3085 49.1182 42.3719 48.5057L42.9559 43.142C43.1769 41.0332 43.6188 38.9595 44.2706 36.9842L45.3928 33.4929C45.8172 32.1914 46.1366 30.8636 46.3706 29.422C46.4997 28.6279 47.2369 28.0832 48.0463 28.2167C48.8403 28.3457 49.3806 29.0961 49.2516 29.8901C48.9935 31.4782 48.6391 32.9504 48.171 34.3898L47.0466 37.8854C46.456 39.6748 46.0578 41.5429 45.8566 43.4504L45.2747 48.812C45.0538 50.912 43.2819 52.5001 41.1535 52.5001Z" fill="#FC573B"/>
<path d="M48.8141 32.1103C48.0069 32.1103 47.25 31.6838 46.8563 30.9663L46.27 29.8988C46.0141 29.4328 45.3622 29.2097 44.7781 29.3847C42.6584 30.03 40.7203 29.1113 39.6003 26.9237C39.1672 26.075 38.3666 25.3203 37.0016 24.4759C36.33 24.0581 35.8487 23.3953 35.6847 22.6538C35.5272 21.9384 35.6694 21.1925 36.0872 20.5559C36.0981 20.5406 36.1069 20.5253 36.1178 20.51C37.3647 18.6528 39.5894 17.5 41.9431 17.5C46.9613 17.5 51.0431 21.2844 51.0431 25.9328V29.9534C51.0431 30.9466 50.3781 31.7844 49.3894 32.0381C49.1969 32.0863 49.0044 32.1103 48.8141 32.1103Z" fill="#FD907E"/>
</g>
<defs>
<clipPath id="clip0_183_4254">
<rect width="70" height="70" fill="white"/>
</clipPath>
</defs>
</svg>
