<svg width="26" height="26" viewBox="0 0 26 26" fill="none" xmlns="http://www.w3.org/2000/svg">
<g clip-path="url(#clip0_183_4460)">
<path d="M24.6543 17.0839L20.5553 14.7175C19.9378 14.362 19.2045 14.2659 18.5162 14.4504C17.8279 14.6348 17.2409 15.0847 16.8838 15.7013C16.6706 16.0709 16.2963 16.5359 15.725 16.6527C15.4824 16.7083 15.2304 16.7089 14.9876 16.6543C14.7448 16.5998 14.5173 16.4915 14.3218 16.3375C12.7793 15.1797 10.8195 13.2202 9.66187 11.6776C9.50782 11.4821 9.39954 11.2546 9.34499 11.0118C9.29044 10.769 9.29102 10.517 9.34667 10.2744C9.46347 9.70309 9.92853 9.32888 10.2981 9.1155C10.9148 8.7585 11.3647 8.17146 11.5492 7.48317C11.7336 6.79487 11.6374 6.06152 11.2818 5.44401L8.91514 1.34479C8.59582 0.785103 8.08498 0.359679 7.47675 0.146913C6.86852 -0.0658529 6.20388 -0.0516241 5.60531 0.186978L5.55565 0.206478C3.60037 0.974088 2.17128 1.56274 1.58313 2.15089C0.602599 3.13143 0.072239 4.39101 0.00678198 5.89479C-0.049636 7.19043 0.246165 8.64988 0.885907 10.2325C2.02341 13.0463 4.20401 16.1503 7.02648 18.9728C9.84895 21.7952 12.953 23.976 15.7667 25.1133C17.2225 25.7017 18.5741 25.9991 19.7898 25.9991C19.8957 25.9991 20.0006 25.9968 20.1046 25.9923C21.6083 25.9268 22.8678 25.3965 23.8484 24.416C24.4363 23.8278 25.025 22.3987 25.7926 20.4436L25.8121 20.394C26.0508 19.7954 26.065 19.1307 25.8523 18.5224C25.6395 17.9141 25.214 17.4033 24.6543 17.0839ZM23.9214 19.6514L23.9019 19.7012C23.5293 20.6502 22.7542 22.6248 22.4119 22.9797C20.8646 24.5269 18.3581 23.9699 16.5279 23.23C13.9984 22.2075 11.0588 20.1323 8.46278 17.5363C5.86679 14.9403 3.79161 12.0007 2.76913 9.47117C2.0293 7.64091 1.47223 5.13445 3.01887 3.5877C3.37434 3.24498 5.34892 2.46975 6.29792 2.09722L6.34763 2.07772C6.42648 2.04639 6.51051 2.03018 6.59535 2.02993C6.70974 2.03027 6.82198 2.06108 6.92052 2.11918C7.01906 2.17728 7.10035 2.26058 7.15602 2.36052L9.52243 6.45953C9.60927 6.61035 9.63274 6.78945 9.5877 6.95755C9.54266 7.12566 9.43279 7.26903 9.28218 7.35623C8.24949 7.95245 7.56552 8.84412 7.3563 9.86736C7.24268 10.3914 7.24469 10.9339 7.36222 11.4571C7.47974 11.9802 7.70994 12.4715 8.03677 12.8966C9.31544 14.6005 11.3985 16.6835 13.1022 17.962C13.5272 18.2888 14.0185 18.519 14.5417 18.6366C15.0649 18.7541 15.6074 18.7561 16.1314 18.6425C17.1545 18.4333 18.0463 17.7493 18.6425 16.7166C18.7302 16.5665 18.8736 16.4571 19.0415 16.4121C19.2094 16.3671 19.3883 16.3902 19.5392 16.4763L23.6382 18.8428C23.7763 18.9195 23.8813 19.0442 23.9335 19.1933C23.9857 19.3423 23.9814 19.5054 23.9214 19.6514ZM13.4027 1.06549C13.4027 0.796133 13.5097 0.537805 13.7002 0.347338C13.8907 0.156871 14.149 0.0498681 14.4184 0.0498681C17.4765 0.0498681 20.4094 1.26472 22.5719 3.42718C24.7343 5.58963 25.9492 8.52255 25.9492 11.5807C25.9492 11.8501 25.8422 12.1084 25.6517 12.2989C25.4613 12.4893 25.2029 12.5964 24.9336 12.5964C24.6642 12.5964 24.4059 12.4893 24.2154 12.2989C24.025 12.1084 23.918 11.8501 23.918 11.5807C23.918 10.3332 23.6722 9.09792 23.1949 7.94538C22.7175 6.79283 22.0177 5.7456 21.1356 4.86347C20.2535 3.98135 19.2062 3.28162 18.0537 2.80422C16.9011 2.32682 15.6659 2.08111 14.4184 2.08112C14.149 2.08112 13.8907 1.97412 13.7002 1.78365C13.5097 1.59318 13.4027 1.33485 13.4027 1.06549ZM13.4027 9.2948C13.4027 9.02544 13.5097 8.76712 13.7002 8.57665C13.8907 8.38618 14.149 8.27918 14.4184 8.27918C15.294 8.27918 16.1337 8.62702 16.7529 9.24618C17.3721 9.86534 17.7199 10.7051 17.7199 11.5807C17.7199 11.8501 17.6129 12.1084 17.4224 12.2989C17.232 12.4893 16.9736 12.5964 16.7043 12.5964C16.4349 12.5964 16.1766 12.4893 15.9861 12.2989C15.7956 12.1084 15.6886 11.8501 15.6886 11.5807C15.6886 11.2438 15.5548 10.9207 15.3166 10.6825C15.0783 10.4443 14.7552 10.3104 14.4184 10.3104C14.285 10.3104 14.1529 10.2842 14.0297 10.2331C13.9065 10.1821 13.7945 10.1073 13.7002 10.013C13.6059 9.91865 13.5311 9.80669 13.48 9.68347C13.429 9.56025 13.4027 9.42818 13.4027 9.2948ZM13.4027 5.1802C13.4027 4.91084 13.5097 4.65251 13.7002 4.46204C13.8907 4.27158 14.149 4.16457 14.4184 4.16457C16.3852 4.1646 18.2716 4.94595 19.6624 6.33674C21.0532 7.72753 21.8345 9.61384 21.8346 11.5807C21.8346 11.8501 21.7276 12.1084 21.5371 12.2989C21.3467 12.4893 21.0883 12.5964 20.819 12.5964C20.5496 12.5964 20.2913 12.4893 20.1008 12.2989C19.9104 12.1084 19.8033 11.8501 19.8033 11.5807C19.8033 10.1526 19.2359 8.78288 18.2261 7.77302C17.2162 6.76315 15.8465 6.1958 14.4184 6.19578C14.149 6.19578 13.8907 6.08878 13.7002 5.89832C13.5097 5.70787 13.4027 5.44955 13.4027 5.1802Z" fill="#67B930"/>
</g>
<defs>
<clipPath id="clip0_183_4460">
<rect width="26" height="26" fill="white"/>
</clipPath>
</defs>
</svg>
